HIERARCHY
ROOT Root
{
  OFFSET 0.0 0.0 0.0
  CHANNELS 6 Xposition Yposition Zposition Zrotation Yrotation Xrotation
  JOINT Hips
  {
    OFFSET 0.0 100.0 0.0
    CHANNELS 6 Xposition Yposition Zposition Zrotation Yrotation Xrotation
    JOINT Spine1
    {
      OFFSET 5.003913 -0.037094 -0.013727
      CHANNELS 3 Zrotation Yrotation Xrotation
      JOINT Spine2
      {
        OFFSET 7.125363 -1e-06 0.0
        CHANNELS 3 Zrotation Yrotation Xrotation
        JOINT Chest
        {
          OFFSET 7.594027 1e-06 0.0
          CHANNELS 3 Zrotation Yrotation Xrotation
          JOINT Neck1
          {
            OFFSET 26.313086 -0.460272 -0.181672
            CHANNELS 3 Zrotation Yrotation Xrotation
            JOINT Neck2
            {
              OFFSET 8.045911 0.0 0.0
              CHANNELS 3 Zrotation Yrotation Xrotation
              JOINT Head
              {
                OFFSET 6.432774 0.0 0.0
                CHANNELS 3 Zrotation Yrotation Xrotation
                JOINT HeadEnd
                {
                  OFFSET 16.169773 0.06451 0.00362
                  CHANNELS 3 Zrotation Yrotation Xrotation
                }
                JOINT Jaw
                {
                  OFFSET 0.108741 3.12938 0.002639
                  CHANNELS 3 Zrotation Yrotation Xrotation
                }
                JOINT LeftEye
                {
                  OFFSET 4.45173 8.166359 3.206392
                  CHANNELS 3 Zrotation Yrotation Xrotation
                }
                JOINT RightEye
                {
                  OFFSET 4.436895 8.135758 -3.222429
                  CHANNELS 3 Zrotation Yrotation Xrotation
                }
              }
            }
          }
          JOINT LeftShoulder
          {
            OFFSET 23.218927 5.195579 1.621656
            CHANNELS 3 Zrotation Yrotation Xrotation
            JOINT LeftArm
            {
              OFFSET 15.902118 2e-06 -2e-06
              CHANNELS 3 Zrotation Yrotation Xrotation
              JOINT LeftForeArm
              {
                OFFSET 28.739307 0.0 -1e-06
                CHANNELS 3 Zrotation Yrotation Xrotation
                JOINT LeftHand
                {
                  OFFSET 27.093981 -4e-06 0.0
                  CHANNELS 3 Zrotation Yrotation Xrotation
                  JOINT LeftHandThumb1
                  {
                    OFFSET 2.276781 3.380274 0.83384
                    CHANNELS 3 Zrotation Yrotation Xrotation
                    JOINT LeftHandThumb2
                    {
                      OFFSET 4.705309 -1e-06 -1e-06
                      CHANNELS 3 Zrotation Yrotation Xrotation
                      JOINT LeftHandThumb3
                      {
                        OFFSET 2.798515 0.0 3e-06
                        CHANNELS 3 Zrotation Yrotation Xrotation
                        JOINT LeftHandThumbEnd
                        {
                          OFFSET 3.180793 4e-06 -4e-06
                          CHANNELS 3 Zrotation Yrotation Xrotation
                        }
                      }
                    }
                  }
                  JOINT LeftHandIndex1
                  {
                    OFFSET 3.247786 2.352677 0.137192
                    CHANNELS 3 Zrotation Yrotation Xrotation
                    JOINT LeftHandIndex2
                    {
                      OFFSET 6.367095 1e-06 0.0
                      CHANNELS 3 Zrotation Yrotation Xrotation
                      JOINT LeftHandIndex3
                      {
                        OFFSET 3.662364 0.0 0.0
                        CHANNELS 3 Zrotation Yrotation Xrotation
                        JOINT LeftHandIndex4
                        {
                          OFFSET 2.329242 4e-06 -4e-06
                          CHANNELS 3 Zrotation Yrotation Xrotation
                          JOINT LeftHandIndexEnd
                          {
                            OFFSET 2.767823 1e-06 0.0
                            CHANNELS 3 Zrotation Yrotation Xrotation
                          }
                        }
                      }
                    }
                  }
                  JOINT LeftHandMiddle1
                  {
                    OFFSET 3.163612 0.945023 -0.406112
                    CHANNELS 3 Zrotation Yrotation Xrotation
                    JOINT LeftHandMiddle2
                    {
                      OFFSET 6.276789 3e-06 0.0
                      CHANNELS 3 Zrotation Yrotation Xrotation
                      JOINT LeftHandMiddle3
                      {
                        OFFSET 4.35652 -1e-06 4e-06
                        CHANNELS 3 Zrotation Yrotation Xrotation
                        JOINT LeftHandMiddle4
                        {
                          OFFSET 2.996877 0.0 8e-06
                          CHANNELS 3 Zrotation Yrotation Xrotation
                          JOINT LeftHandMiddleEnd
                          {
                            OFFSET 2.323256 3e-06 -4e-06
                            CHANNELS 3 Zrotation Yrotation Xrotation
                          }
                        }
                      }
                    }
                  }
                  JOINT LeftHandRing1
                  {
                    OFFSET 2.882606 -0.309162 0.107445
                    CHANNELS 3 Zrotation Yrotation Xrotation
                    JOINT LeftHandRing2
                    {
                      OFFSET 6.033198 0.0 4e-06
                      CHANNELS 3 Zrotation Yrotation Xrotation
                      JOINT LeftHandRing3
                      {
                        OFFSET 4.350578 3e-06 0.0
                        CHANNELS 3 Zrotation Yrotation Xrotation
                        JOINT LeftHandRing4
                        {
                          OFFSET 2.651321 2e-06 -7e-06
                          CHANNELS 3 Zrotation Yrotation Xrotation
                          JOINT LeftHandRingEnd
                          {
                            OFFSET 1.937663 1e-06 -4e-06
                            CHANNELS 3 Zrotation Yrotation Xrotation
                          }
                        }
                      }
                    }
                  }
                  JOINT LeftHandPinky1
                  {
                    OFFSET 2.865315 -1.525436 0.575687
                    CHANNELS 3 Zrotation Yrotation Xrotation
                    JOINT LeftHandPinky2
                    {
                      OFFSET 5.54936 1e-06 -8e-06
                      CHANNELS 3 Zrotation Yrotation Xrotation
                      JOINT LeftHandPinky3
                      {
                        OFFSET 3.070974 0.0 -4e-06
                        CHANNELS 3 Zrotation Yrotation Xrotation
                        JOINT LeftHandPinky4
                        {
                          OFFSET 1.549672 1e-06 0.0
                          CHANNELS 3 Zrotation Yrotation Xrotation
                          JOINT LeftHandPinkyEnd
                          {
                            OFFSET 1.952123 0.0 0.0
                            CHANNELS 3 Zrotation Yrotation Xrotation
                          }
                        }
                      }
                    }
                  }
                }
              }
            }
          }
          JOINT RightShoulder
          {
            OFFSET 23.161716 5.296122 -1.380114
            CHANNELS 3 Zrotation Yrotation Xrotation
            JOINT RightArm
            {
              OFFSET -16.027195 -2e-06 1.1e-05
              CHANNELS 3 Zrotation Yrotation Xrotation
              JOINT RightForeArm
              {
                OFFSET -28.736639 4e-06 2e-06
                CHANNELS 3 Zrotation Yrotation Xrotation
                JOINT RightHand
                {
                  OFFSET -27.133619 6e-06 0.0
                  CHANNELS 3 Zrotation Yrotation Xrotation
                  JOINT RightHandThumb1
                  {
                    OFFSET -2.274328 -3.351035 -0.83067
                    CHANNELS 3 Zrotation Yrotation Xrotation
                    JOINT RightHandThumb2
                    {
                      OFFSET -4.703594 -3e-06 2e-06
                      CHANNELS 3 Zrotation Yrotation Xrotation
                      JOINT RightHandThumb3
                      {
                        OFFSET -2.794935 -4e-06 -3e-06
                        CHANNELS 3 Zrotation Yrotation Xrotation
                        JOINT RightHandThumbEnd
                        {
                          OFFSET -3.183852 4e-06 1e-06
                          CHANNELS 3 Zrotation Yrotation Xrotation
                        }
                      }
                    }
                  }
                  JOINT RightHandIndex1
                  {
                    OFFSET -3.253496 -2.33755 -0.127667
                    CHANNELS 3 Zrotation Yrotation Xrotation
                    JOINT RightHandIndex2
                    {
                      OFFSET -6.344434 0.0 0.0
                      CHANNELS 3 Zrotation Yrotation Xrotation
                      JOINT RightHandIndex3
                      {
                        OFFSET -3.654871 0.0 -8e-06
                        CHANNELS 3 Zrotation Yrotation Xrotation
                        JOINT RightHandIndex4
                        {
                          OFFSET -2.327586 -1e-06 0.0
                          CHANNELS 3 Zrotation Yrotation Xrotation
                          JOINT RightHandIndexEnd
                          {
                            OFFSET -2.770001 3e-06 8e-06
                            CHANNELS 3 Zrotation Yrotation Xrotation
                          }
                        }
                      }
                    }
                  }
                  JOINT RightHandMiddle1
                  {
                    OFFSET -3.168223 -0.944764 0.411762
                    CHANNELS 3 Zrotation Yrotation Xrotation
                    JOINT RightHandMiddle2
                    {
                      OFFSET -6.266691 -1e-06 -4e-06
                      CHANNELS 3 Zrotation Yrotation Xrotation
                      JOINT RightHandMiddle3
                      {
                        OFFSET -4.348901 0.0 0.0
                        CHANNELS 3 Zrotation Yrotation Xrotation
                        JOINT RightHandMiddle4
                        {
                          OFFSET -3.00024 2e-06 -4e-06
                          CHANNELS 3 Zrotation Yrotation Xrotation
                          JOINT RightHandMiddleEnd
                          {
                            OFFSET -2.321477 -4e-06 -4e-06
                            CHANNELS 3 Zrotation Yrotation Xrotation
                          }
                        }
                      }
                    }
                  }
                  JOINT RightHandRing1
                  {
                    OFFSET -2.885654 0.293261 -0.119232
                    CHANNELS 3 Zrotation Yrotation Xrotation
                    JOINT RightHandRing2
                    {
                      OFFSET -6.032835 -1e-06 -4e-06
                      CHANNELS 3 Zrotation Yrotation Xrotation
                      JOINT RightHandRing3
                      {
                        OFFSET -4.33881 0.0 -4e-06
                        CHANNELS 3 Zrotation Yrotation Xrotation
                        JOINT RightHandRing4
                        {
                          OFFSET -2.654903 -4e-06 -4e-06
                          CHANNELS 3 Zrotation Yrotation Xrotation
                          JOINT RightHandRingEnd
                          {
                            OFFSET -1.935122 0.0 4e-06
                            CHANNELS 3 Zrotation Yrotation Xrotation
                          }
                        }
                      }
                    }
                  }
                  JOINT RightHandPinky1
                  {
                    OFFSET -2.866241 1.503904 -0.60527
                    CHANNELS 3 Zrotation Yrotation Xrotation
                    JOINT RightHandPinky2
                    {
                      OFFSET -5.553177 -2e-06 0.0
                      CHANNELS 3 Zrotation Yrotation Xrotation
                      JOINT RightHandPinky3
                      {
                        OFFSET -3.062664 -1e-06 -4e-06
                        CHANNELS 3 Zrotation Yrotation Xrotation
                        JOINT RightHandPinky4
                        {
                          OFFSET -1.546529 2e-06 4e-06
                          CHANNELS 3 Zrotation Yrotation Xrotation
                          JOINT RightHandPinkyEnd
                          {
                            OFFSET -1.952341 0.0 -4e-06
                            CHANNELS 3 Zrotation Yrotation Xrotation
                          }
                        }
                      }
                    }
                  }
                }
              }
            }
          }
        }
      }
    }
    JOINT LeftLeg
    {
      OFFSET -8.443107 2.567604 10.043214
      CHANNELS 3 Zrotation Yrotation Xrotation
      JOINT LeftShin
      {
        OFFSET 43.229198 1e-06 -1e-06
        CHANNELS 3 Zrotation Yrotation Xrotation
        JOINT LeftFoot
        {
          OFFSET 42.298611 1e-06 1e-06
          CHANNELS 3 Zrotation Yrotation Xrotation
          JOINT LeftToeBase
          {
            OFFSET 14.165858 1e-06 0.0
            CHANNELS 3 Zrotation Yrotation Xrotation
            JOINT LeftToeEnd
            {
              OFFSET 6.7141 -0.234461 0.0
              CHANNELS 3 Zrotation Yrotation Xrotation
            }
          }
        }
      }
    }
    JOINT RightLeg
    {
      OFFSET -8.303923 2.592729 -10.047278
      CHANNELS 3 Zrotation Yrotation Xrotation
      JOINT RightShin
      {
        OFFSET -43.369682 0.0 1e-06
        CHANNELS 3 Zrotation Yrotation Xrotation
        JOINT RightFoot
        {
          OFFSET -42.260784 4e-06 2e-06
          CHANNELS 3 Zrotation Yrotation Xrotation
          JOINT RightToeBase
          {
            OFFSET -14.222245 -2e-06 -1e-06
            CHANNELS 3 Zrotation Yrotation Xrotation
            JOINT RightToeEnd
            {
              OFFSET -6.660062 0.232574 -2e-06
              CHANNELS 3 Zrotation Yrotation Xrotation
            }
          }
        }
      }
    }
  }
}
MOTION
Frames: 4
Frame Time: 0.03333333333333333
0.0 0.0 0.0 0.0 -0.0 0.0 0.366624 9.201611 119.77552 -15.401401 -87.883537 -162.578842 -1.213439 -0.118415 -0.637593 -11.04873 0.105072 0.366954 16.662565 -0.098701 -0.992374 7.678778 -1.658253 1.32245 -2.758769 -0.547781 -0.995977 -63.625263 -0.237576 -0.334242 9e-06 0.0 -0.0 -0.129927 0.021086 0.027623 0.536123 -0.226529 0.23185 0.51791 0.283801 -0.180663 -5.600566 -78.345398 13.804994 2.951512 -47.025642 -70.728416 159.55275 2.008076 -0.473277 -15.521353 24.825697 7.90478 17.636625 -26.322731 52.411201 -19.466665 -14.395598 29.410393 -1e-06 -8.774822 -1e-06 14.997362 -18.031343 6.128244 -0.609776 -1.795654 -3.889329 -4.807088 -11.046811 -2.937849 5e-06 -20.976019 -0.0 -5.019969 -25.033558 -4.031882 6e-06 -1e-06 0.0 -10.634535 -5.686971 -3.565587 10.573276 -17.922953 -3.113904 2e-06 -13.821213 -1e-06 -0.501773 -31.181511 -4.02702 -11.113536 -58.411129 6.292955 -13.982713 -7.150198 -2.875041 13.772729 -8.40149 -3.218244 0.347736 -34.211555 0.771652 -0.963029 -17.73337 2.621019 -1e-06 -1e-06 -0.0 -17.346416 -20.095217 -4.201782 21.757557 -1.638374 3.866428 -0.0 -6.338823 1e-06 -1.697589 -22.591749 -6.194007 0.0 -7e-06 -3e-06 150.055832 -77.763893 41.470123 16.946989 -54.463192 -79.213722 156.669937 0.848552 -0.472031 -16.731077 22.904354 27.653673 22.182123 -20.375904 49.933338 -16.701824 -16.74354 28.476545 -2e-06 -12.690607 -1e-06 16.515921 -17.933971 2.387946 -0.105919 -1.513857 -4.275883 -5.039042 -5.612874 -2.953557 5e-06 -11.020528 -2e-06 -6.1113 -15.895341 -3.840472 -0.0 -2e-06 0.0 -10.283374 -5.680292 -4.34184 11.028299 -11.302408 -2.372635 -1.384269 -14.23859 -6.320124 -0.625439 -26.924204 -3.827604 -4.632201 -50.539745 -3.987197 -13.70853 -7.36348 -3.720941 18.141159 -14.052743 -3.242677 6e-06 -18.787275 -2e-06 -0.429712 -8.456047 2.555504 -0.0 2e-06 0.0 -15.923543 -20.094496 -5.473586 30.419224 -7.190828 1.735925 3e-06 -8.162928 -1e-06 -1.861904 -22.861481 -6.167946 -0.0 -4e-06 -1e-06 174.717651 -19.003042 -92.178375 15.169682 -25.701786 62.146053 -110.138588 29.711369 -6.541055 -28.209543 1.602333 1.646078 -0.999999 -0.0 0.0 0.663983 -9.310033 -141.3358 -9.862346 -10.989513 124.959061 -100.559814 14.982567 -10.552317 -28.6661 0.874613 1.45636 -1.000002 -0.0 0.0 
0.0 0.0 0.0 0.0 -0.0 0.0 0.351511 9.207529 119.756126 -15.484355 -87.867966 -162.509048 -1.207566 -0.118461 -0.655374 -11.065016 0.095269 0.357069 16.661503 -0.058698 -0.97069 7.708014 -1.607848 1.329264 -2.760972 -0.556746 -1.018652 -63.68866 -0.163815 -0.3663 6e-06 -0.0 -0.0 -0.132591 0.011972 0.041562 0.545859 -0.237901 0.249127 0.525018 0.276914 -0.170191 -5.634734 -78.236252 13.8993 2.944993 -47.070274 -70.644669 159.557465 2.040052 -0.468661 -15.428643 25.032276 8.226515 17.636635 -26.322733 52.41119 -19.46666 -14.395596 29.410385 -0.0 -8.774821 -2e-06 14.96974 -18.035419 6.161765 -0.609776 -1.795654 -3.889326 -4.807089 -11.046809 -2.93785 4e-06 -20.976019 2e-06 -5.01997 -25.033554 -4.031879 5e-06 -0.0 1e-06 -10.634533 -5.686968 -3.565588 10.573274 -17.922945 -3.113899 3e-06 -13.821209 1e-06 -0.501779 -31.181501 -4.027014 -11.109362 -58.418049 6.301183 -13.982714 -7.150197 -2.875041 13.772729 -8.401489 -3.218239 0.347734 -34.211552 0.771658 -0.963027 -17.733368 2.621021 -1e-06 -1e-06 -0.0 -17.346416 -20.095213 -4.201781 21.757557 -1.638375 3.866429 1e-06 -6.338823 1e-06 -1.697589 -22.591742 -6.194004 -1e-06 -5e-06 -2e-06 150.199448 -77.68576 41.409225 17.123327 -54.39716 -79.402939 156.63324 0.86724 -0.444738 -16.882557 22.914957 27.74991 22.182114 -20.375896 49.933327 -16.701815 -16.743528 28.476536 -3e-06 -12.690601 -1e-06 16.572149 -17.937046 2.372887 -0.105919 -1.513856 -4.275881 -5.039041 -5.612872 -2.953558 5e-06 -11.020525 -2e-06 -6.111297 -15.895334 -3.840472 -0.0 -2e-06 0.0 -10.283371 -5.680288 -4.341839 11.028296 -11.302405 -2.372634 -1.384268 -14.238585 -6.320123 -0.625436 -26.924189 -3.827601 -4.59988 -50.591999 -4.026973 -13.708526 -7.363477 -3.720941 18.141153 -14.05274 -3.242676 7e-06 -18.78727 -2e-06 -0.429712 -8.456041 2.555504 -0.0 1e-06 0.0 -15.923534 -20.094484 -5.473588 30.41921 -7.190828 1.735924 3e-06 -8.162927 -0.0 -1.861901 -22.861471 -6.167942 -0.0 -4e-06 -1e-06 174.664291 -19.051144 -92.222786 15.191054 -25.807833 62.258118 -110.181419 29.639433 -6.446083 -28.221889 1.596607 1.645142 -0.999998 -0.0 -0.0 0.513551 -9.339881 -141.306274 -9.991023 -11.219299 124.997215 -100.59111 14.974141 -10.530091 -28.538074 0.874139 1.449336 -1.0 0.0 0.0 
0.0 0.0 0.0 0.0 -0.0 0.0 0.323499 9.201754 119.740021 -15.607656 -87.862839 -162.387161 -1.21741 -0.110282 -0.664916 -11.079549 0.07228 0.339321 16.662767 -0.042667 -0.939572 7.748011 -1.554885 1.322297 -2.762015 -0.55939 -1.032912 -63.732933 -0.110368 -0.425389 5e-06 -0.0 0.0 -0.134929 0.006045 0.050374 0.547285 -0.245878 0.258673 0.523321 0.273351 -0.162279 -5.741035 -78.114594 14.016308 2.968839 -47.091522 -70.419144 159.567444 2.053489 -0.444548 -15.292826 25.239391 8.603838 17.63662 -26.322729 52.411201 -19.466665 -14.395604 29.410395 -1e-06 -8.774822 -0.0 14.946046 -18.02434 6.17236 -0.609777 -1.795654 -3.889327 -4.807091 -11.046813 -2.937851 2e-06 -20.976021 -1e-06 -5.019972 -25.033562 -4.031884 5e-06 1e-06 0.0 -10.634537 -5.686973 -3.565586 10.573276 -17.922951 -3.113903 2e-06 -13.821212 -1e-06 -0.501777 -31.181507 -4.02702 -11.10521 -58.401695 6.299397 -13.982716 -7.1502 -2.875041 13.772731 -8.401491 -3.218243 0.347732 -34.211559 0.771652 -0.963029 -17.733374 2.621018 -1e-06 -2e-06 0.0 -17.346426 -20.095224 -4.201779 21.757563 -1.638373 3.866428 -1e-06 -6.338824 -0.0 -1.69759 -22.591751 -6.19401 -0.0 -5e-06 -2e-06 150.20462 -77.619583 41.502411 17.312607 -54.340157 -79.531219 156.556076 0.894653 -0.423144 -16.917126 22.947166 27.904993 22.18211 -20.375891 49.933319 -16.701815 -16.743526 28.47653 -2e-06 -12.690598 -0.0 16.644632 -17.941231 2.376131 -0.105919 -1.513856 -4.275881 -5.039039 -5.612871 -2.953557 5e-06 -11.020525 -2e-06 -6.111295 -15.895334 -3.84047 0.0 -2e-06 0.0 -10.283369 -5.680288 -4.341838 11.028294 -11.302406 -2.372634 -1.384268 -14.238584 -6.320122 -0.625437 -26.924192 -3.827602 -4.600461 -50.683739 -4.019555 -13.70852 -7.363475 -3.720939 18.141148 -14.052741 -3.242675 8e-06 -18.787271 -3e-06 -0.429711 -8.456043 2.555503 0.0 1e-06 0.0 -15.923532 -20.094484 -5.473584 30.41921 -7.190825 1.735925 3e-06 -8.162927 -1e-06 -1.8619 -22.861479 -6.167944 -0.0 -4e-06 -1e-06 174.640137 -19.101166 -92.219437 15.244246 -25.849277 62.282871 -110.19503 29.605978 -6.392452 -28.118492 1.590637 1.653759 -0.999999 -0.0 0.0 0.37453 -9.376984 -141.331863 -10.115681 -11.443373 125.065697 -100.598 14.984611 -10.48549 -28.348429 0.871195 1.448339 -1.0 -0.0 -0.0 
0.0 0.0 0.0 0.0 -0.0 0.0 0.286752 9.170508 119.722786 -15.465775 -87.869987 -162.521317 -1.235138 -0.105852 -0.673552 -11.088335 0.051845 0.320557 16.667931 -0.052083 -0.912311 7.788604 -1.49312 1.301684 -2.762782 -0.553773 -1.022172 -63.737228 -0.093067 -0.465014 8e-06 0.0 -0.0 -0.136639 0.003031 0.054521 0.54358 -0.249655 0.262014 0.51603 0.271717 -0.157714 -5.863126 -78.000374 14.085515 2.999905 -47.062862 -70.075859 159.554398 2.065923 -0.41085 -15.131485 25.438747 8.930938 17.636623 -26.322721 52.411179 -19.46666 -14.395594 29.410381 -1e-06 -8.774819 -1e-06 14.934448 -18.004078 6.157444 -0.609777 -1.795654 -3.889328 -4.807088 -11.046812 -2.93785 2e-06 -20.976019 0.0 -5.01997 -25.03356 -4.031882 5e-06 1e-06 0.0 -10.634532 -5.686972 -3.565586 10.573271 -17.922949 -3.113901 2e-06 -13.821211 -1e-06 -0.501778 -31.181505 -4.027016 -11.088059 -58.369904 6.26893 -13.982712 -7.150199 -2.875042 13.772727 -8.401491 -3.21824 0.347732 -34.211555 0.771652 -0.963028 -17.733372 2.621019 -1e-06 -1e-06 -0.0 -17.346418 -20.095221 -4.20178 21.757555 -1.638374 3.866428 0.0 -6.338823 -0.0 -1.69759 -22.591747 -6.194006 -1e-06 -5e-06 -2e-06 150.052002 -77.566574 41.744015 17.497955 -54.286892 -79.535049 156.460037 0.919215 -0.403241 -16.836157 23.03232 28.049664 22.182106 -20.375891 49.9333 -16.701807 -16.743521 28.476519 -2e-06 -12.690595 0.0 16.708643 -17.935345 2.393183 -0.105919 -1.513856 -4.27588 -5.039038 -5.61287 -2.953555 5e-06 -11.02052 -1e-06 -6.111295 -15.89533 -3.840468 0.0 -2e-06 1e-06 -10.283364 -5.680286 -4.341837 11.02829 -11.302402 -2.372632 -1.384267 -14.238579 -6.320119 -0.625439 -26.924185 -3.827599 -4.62382 -50.806675 -3.964855 -13.708517 -7.363473 -3.720938 18.141142 -14.052736 -3.242673 6e-06 -18.787262 -1e-06 -0.429712 -8.456043 2.555502 0.0 1e-06 0.0 -15.923526 -20.094479 -5.473583 30.419193 -7.190826 1.735924 3e-06 -8.162924 -1e-06 -1.861901 -22.861465 -6.167939 -0.0 -2e-06 -1e-06 174.597458 -19.15395 -92.211952 15.286232 -25.864449 62.287064 -109.972504 29.577669 -6.305655 -27.914431 1.583706 1.664016 -0.999996 -0.0 -0.0 0.235905 -9.435796 -141.429001 -10.253387 -11.698615 125.230209 -100.52095 14.976441 -10.366353 -28.146557 0.866325 1.450781 -1.000001 0.0 -0.0 
